<svg width="933" height="2328" viewBox="0 0 933 2328" fill="none" xmlns="http://www.w3.org/2000/svg">
<path id="Vector 46" d="M217.82 4.38405C218.032 4.20723 218.061 3.89194 217.884 3.67984L215.002 0.223376C214.826 0.0112704 214.51 -0.0173329 214.298 0.159489C214.086 0.33631 214.057 0.651598 214.234 0.863703L216.796 3.93611L213.723 6.49742C213.511 6.67424 213.482 6.98953 213.659 7.20164C213.836 7.41374 214.151 7.44234 214.363 7.26552L217.82 4.38405ZM3.49976 71L3.97594 70.8475L3.49976 71ZM539 1153L539.487 1153.11L539.501 1153.05L539.5 1152.99L539 1153ZM288 1777.5L288.218 1777.05L288 1777.5ZM300 1979.5L300.147 1979.98L300.182 1979.97L300.214 1979.95L300 1979.5ZM948.611 2170.49C948.88 2170.43 949.049 2170.16 948.988 2169.89L947.99 2165.5C947.929 2165.23 947.661 2165.06 947.392 2165.12C947.123 2165.19 946.954 2165.45 947.015 2165.72L947.902 2169.62L944.001 2170.51C943.732 2170.57 943.563 2170.84 943.624 2171.11C943.686 2171.38 943.953 2171.55 944.223 2171.48L948.611 2170.49ZM217.545 3.50204C177.107 -0.166508 117.855 -1.22028 71.5441 7.55875C48.3983 11.9464 28.4146 18.8025 15.6381 29.0728C9.24192 34.2143 4.63545 40.2249 2.35809 47.2234C0.0797844 54.2248 0.147199 62.1701 3.02358 71.1525L3.97594 70.8475C1.15232 62.0299 1.1062 54.3023 3.30901 47.5328C5.51277 40.7605 9.98208 34.9024 16.2646 29.8522C28.8454 19.7392 48.6303 12.9202 71.7304 8.54125C117.911 -0.213052 177.059 0.833174 217.455 4.49795L217.545 3.50204ZM3.02358 71.1525C10.179 93.4976 24.9178 114.933 43.2392 136.07C61.5608 157.206 83.5028 178.085 105.087 199.294C126.681 220.513 147.922 242.068 164.89 264.59C181.857 287.111 194.527 310.57 199.008 335.588L199.992 335.412C195.473 310.18 182.706 286.576 165.688 263.988C148.672 241.401 127.382 219.799 105.788 198.581C84.1845 177.353 62.2827 156.512 43.9948 135.415C25.7068 114.317 11.0705 93.0024 3.97594 70.8475L3.02358 71.1525ZM199.008 335.588C201.249 348.101 200.496 357.183 197.685 363.532C194.884 369.856 190.017 373.521 183.883 375.173C177.728 376.832 170.287 376.464 162.394 374.669C154.506 372.875 146.203 369.665 138.345 365.679C130.487 361.693 123.087 356.938 117.003 352.063C110.911 347.182 106.17 342.204 103.597 337.78C101.013 333.336 100.71 329.643 103.079 327.09C104.291 325.784 106.25 324.71 109.125 323.988C111.996 323.267 115.745 322.907 120.49 323L120.51 322C115.711 321.906 111.867 322.268 108.881 323.018C105.898 323.767 103.735 324.912 102.346 326.41C99.5099 329.466 100.083 333.727 102.733 338.283C105.394 342.859 110.243 347.928 116.377 352.843C122.519 357.765 129.978 362.557 137.893 366.571C145.806 370.585 154.187 373.828 162.172 375.644C170.151 377.458 177.771 377.856 184.143 376.139C190.537 374.417 195.663 370.566 198.599 363.937C201.524 357.333 202.251 348.024 199.992 335.412L199.008 335.588ZM120.49 323C130.02 323.187 137.08 323.975 142.042 325.4C147.014 326.828 149.776 328.864 150.891 331.463C152.01 334.071 151.547 337.416 149.641 341.648C147.741 345.868 144.456 350.863 140.105 356.701C122.727 380.022 88.5828 416.47 60.0601 469.262L60.9399 469.738C89.4174 417.03 123.448 380.728 140.907 357.299C145.266 351.449 148.606 346.382 150.553 342.059C152.494 337.748 153.098 334.07 151.81 331.068C150.518 328.058 147.398 325.898 142.319 324.439C137.23 322.978 130.067 322.188 120.51 322L120.49 323ZM60.0601 469.262C52.9043 482.507 51.4391 492.981 54.6884 501.107C57.9375 509.233 65.8353 514.847 77.0145 518.527C99.3625 525.884 135.25 525.655 175.211 521.886C215.198 518.116 259.354 510.791 298.288 503.898C337.239 497.003 370.935 490.546 390.053 488.497L389.947 487.503C370.784 489.556 337.027 496.025 298.113 502.914C259.182 509.806 215.06 517.124 175.117 520.891C135.148 524.66 99.454 524.861 77.3272 517.577C66.2692 513.937 58.7064 508.462 55.6169 500.736C52.5276 493.01 53.8456 482.868 60.9399 469.738L60.0601 469.262ZM390.053 488.497C432.126 483.989 540.399 461.378 643.465 468.561C694.989 472.152 745.148 483.189 785.036 507.622C824.904 532.043 854.535 569.86 865.008 627.09L865.992 626.91C855.465 569.39 825.659 531.332 785.558 506.769C745.477 482.218 695.136 471.16 643.535 467.564C540.351 460.372 431.874 483.011 389.947 487.503L390.053 488.497ZM865.008 627.09C875.481 684.316 860.246 740.855 831.481 794.733C802.715 848.613 760.437 899.794 716.885 946.283C695.111 969.526 673.023 991.591 652.15 1012.23C631.281 1032.87 611.622 1052.08 594.718 1069.62C577.816 1087.16 563.65 1103.03 553.77 1116.98C543.904 1130.92 538.246 1143.03 538.5 1153.01L539.5 1152.99C539.254 1143.35 544.736 1131.47 554.586 1117.56C564.421 1103.67 578.543 1087.84 595.438 1070.32C612.331 1052.79 631.977 1033.59 652.854 1012.94C673.727 992.3 695.827 970.224 717.615 946.967C761.188 900.456 803.535 849.199 832.363 795.204C861.192 741.207 876.519 684.434 865.992 626.91L865.008 627.09ZM538.513 1152.89C532.197 1179.76 509.963 1195.83 480.067 1206.47C450.172 1217.1 412.759 1222.25 376.305 1227.38C339.888 1232.5 304.412 1237.6 278.514 1248.16C265.559 1253.44 254.955 1260.11 247.825 1268.87C240.684 1277.64 237.055 1288.48 238.001 1302.03L238.999 1301.97C238.07 1288.65 241.629 1278.06 248.601 1269.5C255.584 1260.92 266.019 1254.34 278.892 1249.09C304.65 1238.59 339.987 1233.5 376.445 1228.37C412.866 1223.25 450.391 1218.09 480.402 1207.41C510.412 1196.73 533.053 1180.49 539.487 1153.11L538.513 1152.89ZM238.001 1302.03C238.94 1315.49 241.055 1324.54 243.924 1330.03C245.361 1332.78 247.003 1334.67 248.814 1335.77C250.637 1336.88 252.596 1337.15 254.604 1336.72C258.573 1335.88 262.699 1332.3 266.535 1327.1C270.389 1321.88 274.018 1314.93 276.967 1307.18C282.861 1291.69 286.08 1272.9 282.863 1258.16C281.254 1250.78 278.023 1244.38 272.671 1239.94C267.313 1235.5 259.886 1233.06 249.978 1233.5L250.022 1234.5C259.739 1234.07 266.905 1236.46 272.032 1240.71C277.165 1244.97 280.309 1251.14 281.887 1258.37C285.045 1272.85 281.889 1291.43 276.033 1306.82C273.107 1314.51 269.517 1321.37 265.73 1326.51C261.926 1331.66 257.989 1334.98 254.396 1335.75C252.622 1336.12 250.925 1335.88 249.332 1334.92C247.727 1333.94 246.194 1332.22 244.81 1329.57C242.039 1324.26 239.935 1315.38 238.999 1301.97L238.001 1302.03ZM249.978 1233.5C239.941 1233.95 229.672 1241.27 219.823 1253.74C209.957 1266.23 200.436 1283.97 191.91 1305.45C174.857 1348.42 161.754 1406.45 157.876 1467.66C153.998 1528.86 159.343 1593.26 179.217 1648.94C199.092 1704.63 233.509 1751.63 287.782 1777.95L288.218 1777.05C234.241 1750.87 199.971 1704.12 180.158 1648.61C160.344 1593.09 155.002 1528.83 158.874 1467.72C162.746 1406.61 175.83 1348.68 192.84 1305.82C201.345 1284.39 210.824 1266.74 220.607 1254.36C230.406 1241.96 240.434 1234.93 250.022 1234.5L249.978 1233.5ZM287.782 1777.95C331.045 1798.93 357.622 1819.99 372.123 1840.24C386.609 1860.48 389.052 1879.91 384.031 1897.74C379.002 1915.59 366.47 1931.88 350.907 1945.74C335.348 1959.59 316.794 1970.98 299.786 1979.05L300.214 1979.95C317.289 1971.85 335.927 1960.41 351.572 1946.48C367.211 1932.56 379.893 1916.12 384.994 1898.01C390.102 1879.88 387.589 1860.13 372.936 1839.66C358.298 1819.22 331.555 1798.07 288.218 1777.05L287.782 1777.95ZM299.853 1979.02C246.18 1995.58 208.827 2037.33 190.844 2085.26C172.865 2133.19 174.229 2187.35 198.067 2228.75L198.933 2228.25C175.271 2187.15 173.885 2133.31 191.781 2085.61C209.673 2037.92 246.82 1996.42 300.147 1979.98L299.853 1979.02ZM198.067 2228.75C210.012 2249.5 232.862 2267.52 262.606 2282.29C292.359 2297.07 329.06 2308.61 368.779 2316.37C448.211 2331.88 539.79 2332.26 612.129 2312.98L611.871 2312.02C539.71 2331.24 448.289 2330.87 368.971 2315.38C329.315 2307.64 292.704 2296.12 263.051 2281.4C233.388 2266.67 210.738 2248.75 198.933 2228.25L198.067 2228.75ZM612.129 2312.98C648.283 2303.35 670.051 2292.92 683.835 2281.45C697.64 2269.97 703.399 2257.48 707.603 2243.83C711.812 2230.17 714.441 2215.47 722 2199.3C729.543 2183.16 741.993 2165.6 765.814 2146.39L765.186 2145.61C741.257 2164.9 728.707 2182.59 721.094 2198.87C713.497 2215.13 710.813 2230.02 706.647 2243.54C702.476 2257.08 696.798 2269.37 683.196 2280.69C669.574 2292.02 647.967 2302.4 611.871 2312.02L612.129 2312.98ZM765.814 2146.39C789.644 2127.18 810.412 2117.5 828.777 2114.17C847.134 2110.84 863.128 2113.84 877.426 2120.02C891.735 2126.21 904.348 2135.6 915.934 2145.05C927.497 2154.49 938.074 2164.03 948.234 2170.42L948.766 2169.58C938.676 2163.22 928.19 2153.76 916.566 2144.28C904.965 2134.81 892.265 2125.35 877.824 2119.1C863.372 2112.85 847.178 2109.82 828.598 2113.19C810.025 2116.56 789.106 2126.32 765.186 2145.61L765.814 2146.39Z" fill="#6F3F07"/>
</svg>
